<svg width="74" height="74" viewBox="0 0 74 74" fill="none" xmlns="http://www.w3.org/2000/svg">
<circle cx="37" cy="37" r="36.5" fill="#F3F8FF" stroke="#020E7C"/>
<path d="M43 27V29M31 27V29" stroke="#020E7C" stroke-width="1.5" stroke-linecap="round" stroke-linejoin="round"/>
<path d="M36.9955 38H37.0045M36.9955 42H37.0045M40.991 38H41M33 38H33.009M33 42H33.009" stroke="#020E7C" stroke-width="2" stroke-linecap="round" stroke-linejoin="round"/>
<path d="M28.5 33H45.5" stroke="#020E7C" stroke-width="1.5" stroke-linecap="round" stroke-linejoin="round"/>
<path d="M27.5 37.2432C27.5 32.8859 27.5 30.7073 28.7521 29.3536C30.0042 28 32.0195 28 36.05 28H37.95C41.9805 28 43.9958 28 45.2479 29.3536C46.5 30.7073 46.5 32.8859 46.5 37.2432V37.7568C46.5 42.1141 46.5 44.2927 45.2479 45.6464C43.9958 47 41.9805 47 37.95 47H36.05C32.0195 47 30.0042 47 28.7521 45.6464C27.5 44.2927 27.5 42.1141 27.5 37.7568V37.2432Z" stroke="#020E7C" stroke-width="1.5" stroke-linecap="round" stroke-linejoin="round"/>
<path d="M28 33H46" stroke="#020E7C" stroke-width="1.5" stroke-linecap="round" stroke-linejoin="round"/>
</svg>
