<svg width="74" height="74" viewBox="0 0 74 74" fill="none" xmlns="http://www.w3.org/2000/svg">
<circle cx="37" cy="37" r="36.5" fill="#020E7C" stroke="#020E7C"/>
<path d="M28.7776 36.9424C27.8296 35.2893 27.3718 33.9395 27.0958 32.5712C26.6876 30.5476 27.6218 28.5708 29.1694 27.3095C29.8234 26.7764 30.5732 26.9585 30.96 27.6524L31.8332 29.2189C32.5253 30.4606 32.8713 31.0814 32.8027 31.7396C32.7341 32.3978 32.2674 32.9339 31.334 34.006L28.7776 36.9424ZM28.7776 36.9424C30.6965 40.2883 33.7078 43.3013 37.0576 45.2224M37.0576 45.2224C38.7107 46.1704 40.0605 46.6282 41.4288 46.9042C43.4524 47.3124 45.4292 46.3782 46.6905 44.8306C47.2236 44.1766 47.0415 43.4268 46.3476 43.04L44.7811 42.1668C43.5394 41.4747 42.9186 41.1287 42.2604 41.1973C41.6022 41.2659 41.0661 41.7326 39.994 42.666L37.0576 45.2224Z" stroke="white" stroke-width="1.5" stroke-linejoin="round"/>
<path d="M39 31.8319C40.4232 32.4362 41.5638 33.5768 42.1682 35M39.654 27C43.1912 28.0208 45.9791 30.8085 47 34.3456" stroke="white" stroke-width="1.5" stroke-linecap="round"/>
</svg>
