<svg width="12" height="12" viewBox="0 0 12 12" fill="none" xmlns="http://www.w3.org/2000/svg">
<g id="dashboard-square-02">
<path id="Vector" d="M1 3C1 2.05719 1 1.58578 1.29289 1.29289C1.58578 1 2.05719 1 3 1C3.94281 1 4.41422 1 4.70711 1.29289C5 1.58578 5 2.05719 5 3V4C5 4.94281 5 5.4142 4.70711 5.7071C4.41422 6 3.94281 6 3 6C2.05719 6 1.58578 6 1.29289 5.7071C1 5.4142 1 4.94281 1 4V3Z" stroke="#020E7C" stroke-width="1.5"/>
<path id="Vector_2" d="M1 9.5C1 9.03405 1 8.8011 1.07612 8.6173C1.17762 8.3723 1.37229 8.1776 1.61732 8.0761C1.80109 8 2.03406 8 2.5 8H3.5C3.96594 8 4.19891 8 4.38269 8.0761C4.62771 8.1776 4.82239 8.3723 4.92388 8.6173C5 8.8011 5 9.03405 5 9.5C5 9.96595 5 10.1989 4.92388 10.3827C4.82239 10.6277 4.62771 10.8224 4.38269 10.9239C4.19891 11 3.96594 11 3.5 11H2.5C2.03406 11 1.80109 11 1.61732 10.9239C1.37229 10.8224 1.17762 10.6277 1.07612 10.3827C1 10.1989 1 9.96595 1 9.5Z" stroke="#020E7C" stroke-width="1.5"/>
<path id="Vector_3" d="M7 8C7 7.0572 7 6.5858 7.2929 6.2929C7.5858 6 8.0572 6 9 6C9.9428 6 10.4142 6 10.7071 6.2929C11 6.5858 11 7.0572 11 8V9C11 9.9428 11 10.4142 10.7071 10.7071C10.4142 11 9.9428 11 9 11C8.0572 11 7.5858 11 7.2929 10.7071C7 10.4142 7 9.9428 7 9V8Z" stroke="#020E7C" stroke-width="1.5"/>
<path id="Vector_4" d="M7 2.5C7 2.03406 7 1.80109 7.0761 1.61732C7.1776 1.37229 7.3723 1.17762 7.6173 1.07612C7.8011 1 8.03405 1 8.5 1H9.5C9.96595 1 10.1989 1 10.3827 1.07612C10.6277 1.17762 10.8224 1.37229 10.9239 1.61732C11 1.80109 11 2.03406 11 2.5C11 2.96594 11 3.19891 10.9239 3.38268C10.8224 3.62771 10.6277 3.82239 10.3827 3.92388C10.1989 4 9.96595 4 9.5 4H8.5C8.03405 4 7.8011 4 7.6173 3.92388C7.3723 3.82239 7.1776 3.62771 7.0761 3.38268C7 3.19891 7 2.96594 7 2.5Z" stroke="#020E7C" stroke-width="1.5"/>
</g>
</svg>
