<svg width="12" height="12" viewBox="0 0 12 12" fill="none" xmlns="http://www.w3.org/2000/svg">
<g id="message-add-02">
<path id="Vector" d="M6.25 1.50186C5.80245 1.4952 5.35235 1.50645 4.9147 1.53554C2.82319 1.67457 1.1572 3.36419 1.02012 5.48535C0.993294 5.90045 0.993294 6.33035 1.02012 6.74545C1.07005 7.518 1.41171 8.2333 1.81395 8.8373C2.0475 9.26015 1.89337 9.7879 1.6501 10.2489C1.4747 10.5813 1.387 10.7475 1.45742 10.8675C1.52784 10.9876 1.68513 10.9914 1.99971 10.9991C2.62183 11.0142 3.04134 10.8379 3.37434 10.5923C3.5632 10.4531 3.65763 10.3834 3.72272 10.3754C3.7878 10.3674 3.91588 10.4202 4.172 10.5257C4.4022 10.6205 4.66948 10.6789 4.9147 10.6952C5.6268 10.7426 6.37175 10.7427 7.0853 10.6952C9.1768 10.5562 10.8428 8.8666 10.9799 6.74545C11.001 6.418 11.0055 6.08135 10.9933 5.75" stroke="#A3ADFF" stroke-width="1.5" stroke-linecap="round" stroke-linejoin="round"/>
<path id="Vector_2" d="M7.5 2.75H11M9.25 1V4.5" stroke="#A3ADFF" stroke-width="1.5" stroke-linecap="round" stroke-linejoin="round"/>
<path id="Vector_3" d="M5.99777 6.25H6.00222M7.99552 6.25H8.00002M4 6.25H4.00448" stroke="#A3ADFF" stroke-width="2" stroke-linecap="round" stroke-linejoin="round"/>
</g>
</svg>
