<svg width="12" height="12" viewBox="0 0 12 12" fill="none" xmlns="http://www.w3.org/2000/svg">
<g id="setting-done-01">
<path id="Vector" d="M10.116 5.02725C10.356 4.75727 10.77 4.34926 10.7479 4.1831C10.7649 4.02149 10.6774 3.86968 10.5024 3.56606L10.2557 3.13776C10.069 2.81384 9.9757 2.65188 9.8169 2.5873C9.65815 2.52272 9.47855 2.57368 9.1194 2.6756L8.50925 2.84745C8.27995 2.90033 8.0394 2.87033 7.83 2.76276L7.66155 2.66557C7.48205 2.55058 7.34395 2.38103 7.2675 2.18173L7.1005 1.68304C6.99075 1.35303 6.93585 1.18803 6.80515 1.09365C6.67445 0.999268 6.50085 0.999268 6.1537 0.999268H5.5963C5.2491 0.999268 5.0755 0.999268 4.94486 1.09365C4.81416 1.18803 4.75926 1.35303 4.64946 1.68304L4.48251 2.18173C4.40606 2.38103 4.26796 2.55058 4.08841 2.66557L3.91996 2.76276C3.71061 2.87033 3.47001 2.90033 3.24071 2.84745L2.63062 2.6756C2.27147 2.57368 2.09187 2.52272 1.93307 2.5873C1.77427 2.65188 1.68097 2.81384 1.49432 3.13776L1.24752 3.56606C1.07257 3.86968 0.985123 4.02149 1.00207 4.1831C1.01907 4.34471 1.13617 4.47495 1.37037 4.73542L1.88592 5.31175C2.01187 5.47125 2.10137 5.74925 2.10137 5.99915C2.10137 6.24925 2.01192 6.52715 1.88592 6.6867L1.37037 7.26305C1.13617 7.5235 1.01907 7.65375 1.00207 7.81535C0.985123 7.977 1.07257 8.1288 1.24752 8.4324L1.49432 8.8607C1.68097 9.1846 1.77427 9.3466 1.93307 9.41115C2.09187 9.47575 2.27147 9.4248 2.63062 9.32285L3.24071 9.151C3.47006 9.0981 3.71066 9.12815 3.92006 9.23575L4.08846 9.33295C4.26801 9.44795 4.40606 9.61745 4.48246 9.81675L4.64946 10.3155C4.75926 10.6455 4.81996 10.817 4.92 10.8892C4.95 10.9109 5.07 11.0092 5.364 11.0002" stroke="#A3ADFF" stroke-width="1.5" stroke-linecap="round"/>
<path id="Vector_2" d="M7.5 8.60922C7.5 8.60922 8 8.75122 8.25 9.25122C8.25 9.25122 8.7981 8.00122 9.504 7.75122" stroke="#A3ADFF" stroke-width="1.5" stroke-linecap="round" stroke-linejoin="round"/>
<path id="Vector_3" d="M11 8.49927C11 9.87997 9.8807 10.9993 8.5 10.9993C7.1193 10.9993 6 9.87997 6 8.49927C6 7.11857 7.1193 5.99927 8.5 5.99927C9.8807 5.99927 11 7.11857 11 8.49927Z" stroke="#A3ADFF" stroke-width="1.5" stroke-linecap="round"/>
<path id="Vector_4" d="M7.07995 4.72131C6.65995 4.37931 6.32995 4.24731 5.84995 4.24731C4.94993 4.25931 4.12793 5.0028 4.12793 5.9693C4.12793 6.50215 4.28993 6.8393 4.59593 7.1933" stroke="#A3ADFF" stroke-width="1.5" stroke-linecap="round"/>
</g>
</svg>
