<svg width="12" height="12" viewBox="0 0 12 12" fill="none" xmlns="http://www.w3.org/2000/svg">
<g id="money-bag-02">
<path id="Vector" d="M10.4713 8.4177C10.1432 6.4433 9.1216 4.97306 8.2335 4.1095C7.97505 3.85821 7.84585 3.73257 7.5604 3.61629C7.27495 3.5 7.0296 3.5 6.5389 3.5H5.4611C4.9704 3.5 4.72505 3.5 4.43961 3.61629C4.15417 3.73257 4.02495 3.85821 3.76652 4.1095C2.87841 4.97306 1.8568 6.4433 1.52863 8.4177C1.28446 9.8867 2.63963 11 4.15416 11H7.84585C9.36035 11 10.7155 9.8867 10.4713 8.4177Z" stroke="#A3ADFF" stroke-width="1.5" stroke-linecap="round" stroke-linejoin="round"/>
<path id="Vector_2" d="M3.62831 2.22144C3.52515 2.07129 3.37564 1.8675 3.68449 1.82103C4.00196 1.77326 4.3316 1.99057 4.65427 1.9861C4.94618 1.98206 5.0949 1.85259 5.25445 1.66774C5.42245 1.47308 5.6826 1 6 1C6.3174 1 6.57755 1.47308 6.74555 1.66774C6.9051 1.85259 7.0538 1.98206 7.3457 1.9861C7.6684 1.99057 7.99805 1.77326 8.3155 1.82103C8.62435 1.8675 8.47485 2.07129 8.3717 2.22144L7.90525 2.90032C7.70575 3.19073 7.606 3.33593 7.3972 3.41797C7.18845 3.5 6.91865 3.5 6.3791 3.5H5.6209C5.08135 3.5 4.81155 3.5 4.60278 3.41797C4.39401 3.33593 4.29425 3.19073 4.09473 2.90032L3.62831 2.22144Z" stroke="#A3ADFF" stroke-width="1.5" stroke-linejoin="round"/>
<path id="Vector_3" d="M6.81335 6.45929C6.70525 6.06024 6.15505 5.70014 5.4946 5.96954C4.83415 6.23889 4.72924 7.10564 5.72825 7.19774C6.17975 7.23934 6.47415 7.14944 6.74365 7.40379C7.0132 7.65809 7.06325 8.36539 6.37425 8.55599C5.68525 8.74659 5.003 8.44879 4.92871 8.02584M5.92085 5.49634V5.87654M5.92085 8.61464V8.99634" stroke="#A3ADFF" stroke-width="1.5" stroke-linecap="round" stroke-linejoin="round"/>
</g>
</svg>
