<svg xmlns="http://www.w3.org/2000/svg" version="1.1" width="50" height="50" viewBox="-5.0 -10.0 110.0 135.0">
 <path d="m76.98 29.91c-2.6797 0-4.8633 2.1719-4.8633 4.8438s2.1836 4.8398 4.8633 4.8398c2.6797 0 4.8633-2.1719 4.8633-4.8398 0-2.6719-2.1797-4.8438-4.8633-4.8438zm0 8.1211c-1.8203 0-3.3008-1.4727-3.3008-3.2773 0-1.8086 1.4805-3.2812 3.3008-3.2812 1.8203 0 3.3008 1.4727 3.3008 3.2812 0 1.8047-1.4805 3.2773-3.3008 3.2773z"/>
 <path d="m85.949 34.754c0-4.9258-4.0234-8.9297-8.9688-8.9297-4.9453 0-8.9727 4.0078-8.9727 8.9297 0 4.1016 2.8047 7.5273 6.5977 8.5742v31.035c0 9.2227-7.5078 16.723-16.73 16.723-9.2266 0-16.73-7.5039-16.73-16.723v-18.832c0.73438-0.67578 1.168-1.5977 1.168-2.5898v-3.8086c1.0273-0.44531 1.9648-1.082 2.8516-1.9766l7.6914-11.023-0.99219-0.67578 10.133-14.617 0.50391-0.78906c2.2148-5.1094 0.35156-11.008-4.3242-13.715-1.7188-1.0234-3.7852-1.4727-5.8398-1.3281-0.64453-0.51953-1.457-0.83984-2.3477-0.83984-2.0742 0-3.7617 1.6797-3.7617 3.7461 0 2.0664 1.6875 3.7461 3.7617 3.7461 1.3633 0 2.5469-0.73438 3.207-1.8203 0.89453 0.027344 1.7695 0.26562 2.5078 0.70703 2.418 1.3828 3.4609 4.5781 2.4023 7.3203-0.089844 0.12891-0.16016 0.23828-0.16797 0.27734l-10.086 14.57-0.87109-0.59375-7.1094 10.305c-0.62109 0.46875-1.5898 0.46484-2.207 0l-7.1094-10.305-0.90625 0.62109-9.9492-14.379-0.089844-0.10547c-0.0625-0.12891-0.14453-0.25781-0.24219-0.38672-1.0547-2.7383-0.011719-5.9375 2.418-7.3281 0.74219-0.44531 1.6328-0.67969 2.5508-0.69922 0.66016 1.0859 1.8477 1.8203 3.2109 1.8203 2.0742 0 3.7656-1.6797 3.7656-3.7461-0.003906-2.0703-1.6914-3.75-3.7656-3.75-0.89453 0-1.7031 0.32422-2.3516 0.84375-2.0742-0.15234-4.1562 0.29688-5.8828 1.3203-4.6836 2.7109-6.5469 8.6094-4.2773 13.82l10.609 15.336-0.93359 0.64062 7.3945 10.699 0.35938 0.42969c0.81641 0.8125 1.7422 1.4336 2.7617 1.8594v3.8203c0 1 0.4375 1.9219 1.1758 2.6016v18.82c-0.003906 11.84 9.6328 21.473 21.477 21.473s21.48-9.6328 21.48-21.473v-31.035c3.7891-1.0469 6.5898-4.4727 6.5898-8.5703zm-35.961-24.652c-1.2148 0-2.1992-0.98047-2.1992-2.1836 0-1.207 0.98828-2.1836 2.1992-2.1836 1.2109 0 2.1992 0.98047 2.1992 2.1836 0.003906 1.1992-0.98438 2.1836-2.1992 2.1836zm9.0703 9.1641 0.21875-0.32812c0.015625-0.035156 0.046875-0.089844 0.11719-0.17188l0.12109-0.20312c1.4102-3.4727 0.074219-7.5859-3.0234-9.3555-0.82422-0.49219-1.793-0.79297-2.7852-0.89453 0.015625-0.13281 0.039063-0.25781 0.039063-0.39453 0-0.48828-0.10156-0.95312-0.27344-1.3828 1.3945 0.066406 2.7422 0.46094 3.9102 1.1523 3.9961 2.3125 5.5781 7.3633 3.7344 11.645l-10.547 15.242-1.4297-0.97656zm-31.512-13.535c1.2148 0 2.2031 0.98047 2.2031 2.1836 0 1.2031-0.98828 2.1836-2.2031 2.1836s-2.1992-0.98047-2.1992-2.1836c0-1.2031 0.98438-2.1836 2.1992-2.1836zm-10.754 14.25-0.37891-0.55078c-1.8984-4.3828-0.3125-9.4336 3.6875-11.75 1.1758-0.69922 2.5469-1.0859 3.9531-1.1445-0.17188 0.42969-0.27344 0.89062-0.27344 1.3828 0 0.12891 0.023438 0.25391 0.039062 0.37891-1.0195 0.089844-1.9922 0.40234-2.8242 0.89844-3.1094 1.7812-4.4453 5.8906-3.0352 9.3633l0.125 0.20703c0.070312 0.082031 0.10156 0.14062 0.18359 0.28516l10.09 14.578-1.4297 0.98047zm16.82 26.227-6.7305-9.6758 3.2695-2.2422 6.2891 9.1172 0.13672 0.14844c1.2266 1.0469 3.1484 1.0508 4.3789 0l6.4258-9.2695 3.2891 2.2422-6.6953 9.6172c-0.77734 0.76953-1.6914 1.3477-2.707 1.7109l-0.51562 0.18359v4.8906c0 0.61719-0.29297 1.1953-0.79688 1.582-0.67578 0.51172-1.7031 0.51172-2.3711 0.003906-0.50781-0.39062-0.80078-0.96484-0.80078-1.5859v-4.9219l-0.53125-0.17969c-1-0.32422-1.9062-0.89453-2.6406-1.6211zm44.184 0.96484v27.191c0 10.98-8.9336 19.91-19.918 19.91s-19.918-8.9297-19.918-19.91v-18.012c0.26562 0.0625 0.52734 0.12891 0.80859 0.12891 0.28516 0 0.55078-0.070313 0.82031-0.13281v18.016c0 10.082 8.207 18.285 18.293 18.285 10.086 0 18.293-8.2031 18.293-18.285l-0.003906-27.445v-3.3164c0.26953 0.023438 0.53516 0.082032 0.80859 0.082032 0.27734 0 0.54297-0.054688 0.81641-0.082032l0.003906 3.5703zm-0.81641-5.0547c-4.0859 0-7.4102-3.3047-7.4102-7.3672s3.3242-7.3672 7.4102-7.3672c4.082 0 7.4062 3.3047 7.4062 7.3672 0 4.0664-3.3203 7.3672-7.4062 7.3672z"/>
</svg>